<mxfile host="drawio-plugin" modified="2021-05-18T02:48:18.594Z" agent="5.0 (Macintosh; Intel Mac OS X 10_16_0) AppleWebKit/537.36 (KHTML, like Gecko) Chrome/84.0.4147.105 Safari/537.36" etag="L2oI6LbioG7uIBGhmjNv" version="14.6.6" type="embed"><diagram id="kgpKYQtTHZ0yAKxKKP6v" name="Page-1"><mxGraphModel dx="1397" dy="527" grid="1" gridSize="10" guides="1" tooltips="1" connect="1" arrows="1" fold="1" page="1" pageScale="1" pageWidth="850" pageHeight="1100" math="0" shadow="0"><root><mxCell id="0"/><mxCell id="1" parent="0"/><mxCell id="3nuBFxr9cyL0pnOWT2aG-1" value="JobTracker" style="shape=umlLifeline;perimeter=lifelinePerimeter;container=1;collapsible=0;recursiveResize=0;rounded=0;shadow=0;strokeWidth=1;" parent="1" vertex="1"><mxGeometry x="120" y="80" width="100" height="800" as="geometry"/></mxCell><mxCell id="3nuBFxr9cyL0pnOWT2aG-2" value="" style="points=[];perimeter=orthogonalPerimeter;rounded=0;shadow=0;strokeWidth=1;" parent="3nuBFxr9cyL0pnOWT2aG-1" vertex="1"><mxGeometry x="45" y="70" width="10" height="280" as="geometry"/></mxCell><mxCell id="3nuBFxr9cyL0pnOWT2aG-5" value="JobExecutor" style="shape=umlLifeline;perimeter=lifelinePerimeter;container=1;collapsible=0;recursiveResize=0;rounded=0;shadow=0;strokeWidth=1;" parent="1" vertex="1"><mxGeometry x="300" y="80" width="100" height="800" as="geometry"/></mxCell><mxCell id="3nuBFxr9cyL0pnOWT2aG-6" value="" style="points=[];perimeter=orthogonalPerimeter;rounded=0;shadow=0;strokeWidth=1;" parent="3nuBFxr9cyL0pnOWT2aG-5" vertex="1"><mxGeometry x="45" y="80" width="10" height="270" as="geometry"/></mxCell><mxCell id="k-Xo9jwH2IqIcLE5PCID-5" value="" style="points=[];perimeter=orthogonalPerimeter;rounded=0;shadow=0;strokeWidth=1;" parent="3nuBFxr9cyL0pnOWT2aG-5" vertex="1"><mxGeometry x="50" y="100" width="10" height="150" as="geometry"/></mxCell><mxCell id="k-Xo9jwH2IqIcLE5PCID-19" value="" style="html=1;points=[];perimeter=orthogonalPerimeter;" parent="3nuBFxr9cyL0pnOWT2aG-5" vertex="1"><mxGeometry x="50" y="300" width="10" height="40" as="geometry"/></mxCell><mxCell id="k-Xo9jwH2IqIcLE5PCID-20" value="持久化 DB" style="edgeStyle=orthogonalEdgeStyle;html=1;align=left;spacingLeft=2;endArrow=block;rounded=0;entryX=1;entryY=0;dashed=1;" parent="3nuBFxr9cyL0pnOWT2aG-5" target="k-Xo9jwH2IqIcLE5PCID-19" edge="1"><mxGeometry relative="1" as="geometry"><mxPoint x="55" y="280" as="sourcePoint"/><Array as="points"><mxPoint x="80" y="280"/></Array></mxGeometry></mxCell><mxCell id="k-Xo9jwH2IqIcLE5PCID-2" value="execute(job)" style="html=1;verticalAlign=bottom;endArrow=block;entryX=0.033;entryY=0;entryDx=0;entryDy=0;entryPerimeter=0;" parent="1" source="3nuBFxr9cyL0pnOWT2aG-2" target="3nuBFxr9cyL0pnOWT2aG-6" edge="1"><mxGeometry width="80" relative="1" as="geometry"><mxPoint x="200" y="160" as="sourcePoint"/><mxPoint x="280" y="160" as="targetPoint"/></mxGeometry></mxCell><mxCell id="k-Xo9jwH2IqIcLE5PCID-3" value="JobDispatcher" style="shape=umlLifeline;perimeter=lifelinePerimeter;container=1;collapsible=0;recursiveResize=0;rounded=0;shadow=0;strokeWidth=1;" parent="1" vertex="1"><mxGeometry x="480" y="80" width="100" height="800" as="geometry"/></mxCell><mxCell id="k-Xo9jwH2IqIcLE5PCID-4" value="" style="points=[];perimeter=orthogonalPerimeter;rounded=0;shadow=0;strokeWidth=1;" parent="k-Xo9jwH2IqIcLE5PCID-3" vertex="1"><mxGeometry x="45" y="100" width="10" height="150" as="geometry"/></mxCell><mxCell id="k-Xo9jwH2IqIcLE5PCID-15" value="" style="points=[];perimeter=orthogonalPerimeter;rounded=0;shadow=0;strokeWidth=1;" parent="k-Xo9jwH2IqIcLE5PCID-3" vertex="1"><mxGeometry x="50" y="200" width="10" height="40" as="geometry"/></mxCell><mxCell id="k-Xo9jwH2IqIcLE5PCID-6" value="dispatch(job)" style="html=1;verticalAlign=bottom;endArrow=block;" parent="1" target="k-Xo9jwH2IqIcLE5PCID-4" edge="1"><mxGeometry width="80" relative="1" as="geometry"><mxPoint x="360" y="180" as="sourcePoint"/><mxPoint x="520" y="180" as="targetPoint"/></mxGeometry></mxCell><mxCell id="k-Xo9jwH2IqIcLE5PCID-7" value="WorkerChooser" style="shape=umlLifeline;perimeter=lifelinePerimeter;container=1;collapsible=0;recursiveResize=0;rounded=0;shadow=0;strokeWidth=1;" parent="1" vertex="1"><mxGeometry x="660" y="80" width="100" height="800" as="geometry"/></mxCell><mxCell id="k-Xo9jwH2IqIcLE5PCID-8" value="" style="points=[];perimeter=orthogonalPerimeter;rounded=0;shadow=0;strokeWidth=1;" parent="k-Xo9jwH2IqIcLE5PCID-7" vertex="1"><mxGeometry x="45" y="120" width="10" height="40" as="geometry"/></mxCell><mxCell id="k-Xo9jwH2IqIcLE5PCID-9" value="chooseWorker(dispatchType)" style="html=1;verticalAlign=bottom;endArrow=block;" parent="1" edge="1"><mxGeometry width="80" relative="1" as="geometry"><mxPoint x="540" y="200" as="sourcePoint"/><mxPoint x="705" y="200" as="targetPoint"/></mxGeometry></mxCell><mxCell id="k-Xo9jwH2IqIcLE5PCID-10" value="" style="points=[];perimeter=orthogonalPerimeter;rounded=0;shadow=0;strokeWidth=1;" parent="1" vertex="1"><mxGeometry x="530" y="200" width="10" height="40" as="geometry"/></mxCell><mxCell id="k-Xo9jwH2IqIcLE5PCID-12" value="Worker" style="html=1;verticalAlign=bottom;endArrow=block;" parent="1" edge="1"><mxGeometry width="80" relative="1" as="geometry"><mxPoint x="705" y="240" as="sourcePoint"/><mxPoint x="540" y="240" as="targetPoint"/></mxGeometry></mxCell><mxCell id="k-Xo9jwH2IqIcLE5PCID-13" value="Worker" style="shape=umlLifeline;perimeter=lifelinePerimeter;container=1;collapsible=0;recursiveResize=0;rounded=0;shadow=0;strokeWidth=1;" parent="1" vertex="1"><mxGeometry x="840" y="80" width="100" height="800" as="geometry"/></mxCell><mxCell id="k-Xo9jwH2IqIcLE5PCID-14" value="" style="points=[];perimeter=orthogonalPerimeter;rounded=0;shadow=0;strokeWidth=1;" parent="k-Xo9jwH2IqIcLE5PCID-13" vertex="1"><mxGeometry x="45" y="200" width="10" height="40" as="geometry"/></mxCell><mxCell id="k-Xo9jwH2IqIcLE5PCID-16" value="sendJob(job)" style="html=1;verticalAlign=bottom;endArrow=block;" parent="1" target="k-Xo9jwH2IqIcLE5PCID-14" edge="1"><mxGeometry width="80" relative="1" as="geometry"><mxPoint x="540" y="280" as="sourcePoint"/><mxPoint x="705" y="280" as="targetPoint"/></mxGeometry></mxCell><mxCell id="k-Xo9jwH2IqIcLE5PCID-17" value="Response" style="html=1;verticalAlign=bottom;endArrow=open;dashed=1;endSize=8;" parent="1" target="k-Xo9jwH2IqIcLE5PCID-15" edge="1"><mxGeometry relative="1" as="geometry"><mxPoint x="880" y="320" as="sourcePoint"/><mxPoint x="800" y="320" as="targetPoint"/></mxGeometry></mxCell><mxCell id="k-Xo9jwH2IqIcLE5PCID-18" value="JobContext" style="html=1;verticalAlign=bottom;endArrow=block;dashed=1;" parent="1" edge="1"><mxGeometry width="80" relative="1" as="geometry"><mxPoint x="525" y="330" as="sourcePoint"/><mxPoint x="360" y="330" as="targetPoint"/></mxGeometry></mxCell><mxCell id="k-Xo9jwH2IqIcLE5PCID-22" value="JobContext" style="html=1;verticalAlign=bottom;endArrow=block;dashed=1;" parent="1" target="3nuBFxr9cyL0pnOWT2aG-2" edge="1"><mxGeometry width="80" relative="1" as="geometry"><mxPoint x="345" y="430" as="sourcePoint"/><mxPoint x="180" y="430" as="targetPoint"/></mxGeometry></mxCell><mxCell id="k-Xo9jwH2IqIcLE5PCID-25" value="时间轮，触发任务执行检测" style="html=1;verticalAlign=bottom;startArrow=circle;startFill=1;endArrow=open;startSize=6;endSize=8;" parent="1" edge="1"><mxGeometry width="80" relative="1" as="geometry"><mxPoint x="-10" y="150" as="sourcePoint"/><mxPoint x="170" y="150" as="targetPoint"/></mxGeometry></mxCell></root></mxGraphModel></diagram></mxfile>